<?xml version="1.0" encoding="UTF-8"?>
<svg width="14px" height="20px" viewBox="0 0 14 20" version="1.1" xmlns="http://www.w3.org/2000/svg" xmlns:xlink="http://www.w3.org/1999/xlink">
    <!-- Generator: Sketch 64 (93537) - https://sketch.com -->
    <title>Shape Copy 3</title>
    <desc>Created with Sketch.</desc>
    <g id="Page-1" stroke="none" stroke-width="1" fill="none" fill-rule="evenodd">
        <g id="5" transform="translate(-51.000000, -1014.000000)" fill="#FF4404" fill-rule="nonzero">
            <g id="Group-24" transform="translate(51.000000, 988.000000)">
                <g id="Group" transform="translate(0.000000, 24.500000)">
                    <path d="M0.765942029,5.16666667 L1.96304348,19.5502604 C1.96304348,20.3518229 2.62753623,21 3.44927536,21 L10.6014493,21 C11.4231884,21 12.0876812,20.3518229 12.0876812,19.5502604 L13.2695652,5.16666667 L0.765942029,5.16666667 Z M3.89057971,18.2786458 L3.55072464,6.75 L4.48913043,6.75 L4.83913043,18.2786458 L3.89057971,18.2786458 L3.89057971,18.2786458 Z M7.45652174,18.2786458 L6.54347826,18.2786458 L6.54347826,6.75 L7.45652174,6.75 L7.45652174,18.2786458 Z M10.1094203,18.2786458 L9.16594203,18.2786458 L9.51086957,6.75 L10.4492754,6.75 L10.1094203,18.2786458 Z M12.4782609,3.38541667 L10.6521739,3.38541667 L9.31811594,2.24739583 C9.13043478,2.0890625 8.89202899,2 8.64855072,2 L5.3615942,2 C5.11304348,2 4.86956522,2.0890625 4.68188406,2.24739583 L3.34782609,3.38541667 L1.52173913,3.38541667 C0.628985507,3.38541667 0,3.80104167 0,4.671875 L14,4.671875 C14,3.80104167 13.3710145,3.38541667 12.4782609,3.38541667 Z" id="Shape-Copy-3"></path>
                </g>
            </g>
        </g>
    </g>
</svg>